<svg width="1251.601" height="97" xmlns="http://www.w3.org/2000/svg"><path d="M1221.601 29.1l1.1 1.2a19.768 19.768 0 00-2.963 1.723q-2.187 1.558-3.437 3.527-2 3.15-2 6.45a10.477 10.477 0 001.938 6.061 12.725 12.725 0 00.062.089 23.136 23.136 0 002.64 3.106 30.818 30.818 0 002.66 2.344 126.62 126.62 0 005.231 3.9 145.193 145.193 0 001.869 1.3q5.2 3.5 9.4 6.75a33.045 33.045 0 013.866 3.485 25.515 25.515 0 012.784 3.515q2.45 3.75 2.45 8.75 0 4.6-2.15 8.15a14.592 14.592 0 01-5.614 5.294 17.52 17.52 0 01-.486.256 18.051 18.051 0 01-5.052 1.644 24.763 24.763 0 01-4.298.356q-2.567 0-4.548-.402a15.034 15.034 0 01-.652-.148q-2.2-.55-3.7-1.15a17.389 17.389 0 01-2.854-1.494 12.667 12.667 0 01-2.796-2.456 10.01 10.01 0 01-1.25-1.858 6.94 6.94 0 01-.8-3.192q0-2.2 1.4-3.8a4.577 4.577 0 012.753-1.506 6.704 6.704 0 011.147-.094q2.3 0 3.9 1.45t1.6 3.85a5.641 5.641 0 01-.931 3.094 6.816 6.816 0 01-.069.106 4.473 4.473 0 01-1.483 1.372q-.775.456-1.817.728.581 1.357 2.244 2.151a7.097 7.097 0 00.106.049 13.447 13.447 0 002.821.919 15.765 15.765 0 001.029.181 35.656 35.656 0 001.49.183q.733.073 1.374.101a17.216 17.216 0 00.736.016 17.562 17.562 0 002.502-.167q1.295-.187 2.355-.583a7.92 7.92 0 001.593-.8 10.015 10.015 0 002.13-1.858 8.508 8.508 0 001.27-1.992 12.006 12.006 0 00.819-2.415 9.719 9.719 0 00.231-2.085 11.396 11.396 0 00-2.5-7.2 28.533 28.533 0 00-3.445-3.659 36.418 36.418 0 00-2.905-2.341q-3.85-2.8-7.75-5.5a114.918 114.918 0 01-3.382-2.412q-2.637-1.957-4.668-3.738-3.25-2.85-4.95-6.05a14.548 14.548 0 01-1.58-5.185 18.196 18.196 0 01-.12-2.115 18.549 18.549 0 012.373-9.023 22.089 22.089 0 01.327-.577q2.7-4.6 10-8.3zm17.1 38.6l-.9-1a22.802 22.802 0 002.907-1.79q1.462-1.07 2.509-2.268a11.794 11.794 0 00.984-1.292 12.452 12.452 0 001.56-3.311 10.701 10.701 0 00.44-3.039q0-3.4-2-6.2a23.351 23.351 0 00-2.492-2.918 31.626 31.626 0 00-2.808-2.482 126.62 126.62 0 00-5.232-3.9 145.192 145.192 0 00-1.868-1.3q-5.2-3.6-9.4-6.8a31.991 31.991 0 01-3.918-3.501 24.926 24.926 0 01-2.732-3.449q-2.45-3.75-2.45-8.75a17.339 17.339 0 01.52-4.336 14.011 14.011 0 011.63-3.864 14.47 14.47 0 015.149-4.959 17.699 17.699 0 011.001-.541 18.659 18.659 0 015.507-1.719 24.617 24.617 0 013.793-.281q2.566 0 4.547.403a15.034 15.034 0 01.653.147q2.2.55 3.7 1.15a17.389 17.389 0 012.853 1.494 12.667 12.667 0 012.797 2.456 10.01 10.01 0 011.249 1.859 6.94 6.94 0 01.801 3.191 5.986 5.986 0 01-.44 2.314 5.65 5.65 0 01-.91 1.486q-1.35 1.6-3.95 1.6-2.2 0-3.85-1.45a4.773 4.773 0 01-1.635-3.39 6.598 6.598 0 01-.015-.46 5.641 5.641 0 01.931-3.094 6.816 6.816 0 01.069-.106 4.473 4.473 0 011.482-1.371q.775-.457 1.818-.729a4.284 4.284 0 00-1.688-1.857 5.843 5.843 0 00-.762-.393q-1.75-.75-3.75-1.05a31.527 31.527 0 00-1.43-.183q-.708-.073-1.34-.1a16.836 16.836 0 00-.73-.017 17.625 17.625 0 00-2.624.183q-1.368.207-2.488.645a8.428 8.428 0 00-1.438.722 10.26 10.26 0 00-1.895 1.519 7.838 7.838 0 00-1.555 2.281q-1 2.25-1 4.55 0 3.9 2.55 7.15a30.319 30.319 0 003.885 4.072 37.303 37.303 0 002.465 1.978q3.8 2.8 7.7 5.5 4.8 3.3 8.1 6.15a24.688 24.688 0 012.726 2.732 18.036 18.036 0 012.224 3.268 14.266 14.266 0 011.436 4.467 18.8 18.8 0 01.214 2.883 17.401 17.401 0 01-2.068 8.164 21.261 21.261 0 01-.732 1.286 16.456 16.456 0 01-2.875 3.425q-1.54 1.426-3.595 2.754a39.955 39.955 0 01-3.63 2.071zM80.101 25.6v42.3q0 4.147 1.642 5.98a4.178 4.178 0 00.558.52q2.2 1.7 7.4 1.7v2.1q-1.532-.076-4.147-.182a1129.937 1129.937 0 00-1.703-.068 201.968 201.968 0 00-6.929-.148 221.596 221.596 0 00-1.021-.002q-4.6 0-8.85.15t-6.55.25v-2.1q3.274 0 5.605-.708a10.068 10.068 0 002.195-.942 5.119 5.119 0 002.164-2.618q.377-.948.531-2.156a14.127 14.127 0 00.105-1.776V43.7q0-4.8-1-7.1t-3.55-3q-2.304-.632-6.199-.693a54.297 54.297 0 00-.851-.007v-2.2a89.06 89.06 0 004.964-.268q3.998-.336 7.036-1.032a24.026 24.026 0 008-3.388 23.019 23.019 0 00.6-.412zm37 0v42.3q0 4.147 1.642 5.98a4.178 4.178 0 00.558.52q2.2 1.7 7.4 1.7v2.1q-1.532-.076-4.147-.182a1129.937 1129.937 0 00-1.703-.068 201.968 201.968 0 00-6.929-.148 221.596 221.596 0 00-1.021-.002q-4.6 0-8.85.15t-6.55.25v-2.1q3.274 0 5.605-.708a10.068 10.068 0 002.195-.942 5.119 5.119 0 002.164-2.618q.377-.948.531-2.156a14.127 14.127 0 00.105-1.776V43.7q0-4.8-1-7.1t-3.55-3q-2.304-.632-6.199-.693a54.297 54.297 0 00-.851-.007v-2.2a89.06 89.06 0 004.964-.268q3.998-.336 7.036-1.032a24.026 24.026 0 008-3.388 23.019 23.019 0 00.6-.412zm157 0v42.3q0 4.147 1.642 5.98a4.178 4.178 0 00.558.52q2.2 1.7 7.4 1.7v2.1q-1.532-.076-4.147-.182a1129.937 1129.937 0 00-1.703-.068 201.968 201.968 0 00-6.929-.148 221.596 221.596 0 00-1.021-.002q-4.6 0-8.85.15t-6.55.25v-2.1q3.274 0 5.605-.708a10.068 10.068 0 002.195-.942 5.119 5.119 0 002.164-2.618q.377-.948.531-2.156a14.127 14.127 0 00.105-1.776V43.7q0-4.8-1-7.1t-3.55-3q-2.304-.632-6.199-.693a54.297 54.297 0 00-.851-.007v-2.2a89.06 89.06 0 004.964-.268q3.998-.336 7.036-1.032a24.026 24.026 0 008-3.388 23.019 23.019 0 00.6-.412zm97 0v42.3q0 4.147 1.642 5.98a4.178 4.178 0 00.558.52q2.2 1.7 7.4 1.7v2.1q-1.532-.076-4.147-.182a1129.937 1129.937 0 00-1.703-.068 201.968 201.968 0 00-6.929-.148 221.596 221.596 0 00-1.021-.002q-4.6 0-8.85.15t-6.55.25v-2.1q3.274 0 5.605-.708a10.068 10.068 0 002.195-.942 5.119 5.119 0 002.164-2.618q.377-.948.531-2.156a14.127 14.127 0 00.105-1.776V43.7q0-4.8-1-7.1t-3.55-3q-2.304-.632-6.199-.693a54.297 54.297 0 00-.851-.007v-2.2a89.06 89.06 0 004.964-.268q3.998-.336 7.036-1.032a24.026 24.026 0 008-3.388 23.019 23.019 0 00.6-.412zm97 0v42.3q0 4.147 1.642 5.98a4.178 4.178 0 00.558.52q2.2 1.7 7.4 1.7v2.1q-1.532-.076-4.147-.182a1129.937 1129.937 0 00-1.703-.068 201.968 201.968 0 00-6.929-.148 221.596 221.596 0 00-1.021-.002q-4.6 0-8.85.15t-6.55.25v-2.1q3.274 0 5.605-.708a10.068 10.068 0 002.195-.942 5.119 5.119 0 002.164-2.618q.377-.948.531-2.156a14.127 14.127 0 00.105-1.776V43.7q0-4.8-1-7.1t-3.55-3q-2.304-.632-6.199-.693a54.297 54.297 0 00-.851-.007v-2.2a89.06 89.06 0 004.964-.268q3.998-.336 7.036-1.032a24.026 24.026 0 008-3.388 23.019 23.019 0 00.6-.412zm337 0v42.3q0 4.147 1.642 5.98a4.178 4.178 0 00.558.52q2.2 1.7 7.4 1.7v2.1q-1.532-.076-4.147-.182a1129.937 1129.937 0 00-1.703-.068 201.968 201.968 0 00-6.929-.148 221.596 221.596 0 00-1.021-.002q-4.6 0-8.85.15t-6.55.25v-2.1q3.274 0 5.605-.708a10.068 10.068 0 002.195-.942 5.119 5.119 0 002.164-2.618q.377-.948.531-2.156a14.127 14.127 0 00.105-1.776V43.7q0-4.8-1-7.1t-3.55-3q-2.304-.632-6.199-.693a54.297 54.297 0 00-.851-.007v-2.2a89.06 89.06 0 004.964-.268q3.998-.336 7.036-1.032a24.026 24.026 0 008-3.388 23.019 23.019 0 00.6-.412zm97 0v42.3q0 4.147 1.642 5.98a4.178 4.178 0 00.558.52q2.2 1.7 7.4 1.7v2.1q-1.532-.076-4.147-.182a1129.937 1129.937 0 00-1.703-.068 201.968 201.968 0 00-6.929-.148 221.596 221.596 0 00-1.021-.002q-4.6 0-8.85.15t-6.55.25v-2.1q3.274 0 5.605-.708a10.068 10.068 0 002.195-.942 5.119 5.119 0 002.164-2.618q.377-.948.531-2.156a14.127 14.127 0 00.105-1.776V43.7q0-4.8-1-7.1t-3.55-3q-2.304-.632-6.199-.693a54.297 54.297 0 00-.851-.007v-2.2a89.06 89.06 0 004.964-.268q3.998-.336 7.036-1.032a24.026 24.026 0 008-3.388 23.019 23.019 0 00.6-.412zm157 0v42.3q0 4.147 1.642 5.98a4.178 4.178 0 00.558.52q2.2 1.7 7.4 1.7v2.1q-1.532-.076-4.147-.182a1129.937 1129.937 0 00-1.703-.068 201.968 201.968 0 00-6.929-.148 221.596 221.596 0 00-1.021-.002q-4.6 0-8.85.15t-6.55.25v-2.1q3.274 0 5.605-.708a10.068 10.068 0 002.195-.942 5.119 5.119 0 002.164-2.618q.377-.948.531-2.156a14.127 14.127 0 00.105-1.776V43.7q0-4.8-1-7.1t-3.55-3q-2.304-.632-6.199-.693a54.297 54.297 0 00-.851-.007v-2.2a89.06 89.06 0 004.964-.268q3.998-.336 7.036-1.032a24.026 24.026 0 008-3.388 23.019 23.019 0 00.6-.412zm97 0v42.3q0 4.147 1.642 5.98a4.178 4.178 0 00.558.52q2.2 1.7 7.4 1.7v2.1q-1.532-.076-4.147-.182a1129.937 1129.937 0 00-1.703-.068 201.968 201.968 0 00-6.929-.148 221.596 221.596 0 00-1.021-.002q-4.6 0-8.85.15t-6.55.25v-2.1q3.274 0 5.605-.708a10.068 10.068 0 002.195-.942 5.119 5.119 0 002.164-2.618q.377-.948.531-2.156a14.127 14.127 0 00.105-1.776V43.7q0-4.8-1-7.1t-3.55-3q-2.304-.632-6.199-.693a54.297 54.297 0 00-.851-.007v-2.2a89.06 89.06 0 004.964-.268q3.998-.336 7.036-1.032a24.026 24.026 0 008-3.388 23.019 23.019 0 00.6-.412zm37 0v42.3q0 4.147 1.642 5.98a4.178 4.178 0 00.558.52q2.2 1.7 7.4 1.7v2.1q-1.532-.076-4.147-.182a1129.937 1129.937 0 00-1.703-.068 201.968 201.968 0 00-6.929-.148 221.596 221.596 0 00-1.021-.002q-4.6 0-8.85.15t-6.55.25v-2.1q3.274 0 5.605-.708a10.068 10.068 0 002.195-.942 5.119 5.119 0 002.164-2.618q.377-.948.531-2.156a14.127 14.127 0 00.105-1.776V43.7q0-4.8-1-7.1t-3.55-3q-2.304-.632-6.199-.693a54.297 54.297 0 00-.851-.007v-2.2a89.06 89.06 0 004.964-.268q3.998-.336 7.036-1.032a24.026 24.026 0 008-3.388 23.019 23.019 0 00.6-.412zm-1160.722.617a26.378 26.378 0 00-7.078-.917 28.877 28.877 0 00-3.234.177A22.923 22.923 0 0012.001 29q-5.7 3.7-8.85 10a28.736 28.736 0 00-2.154 5.819A34.053 34.053 0 00.001 53.2a35.412 35.412 0 00.443 5.712 26.662 26.662 0 002.707 8.238 27.022 27.022 0 00.099.185 22.785 22.785 0 008.551 9.015 22.777 22.777 0 004.321 1.981 25.125 25.125 0 008.079 1.269 29.046 29.046 0 003.455-.2 22.779 22.779 0 009.795-3.45 24.527 24.527 0 002.673-1.995 25.573 25.573 0 006.177-8.005 28.79 28.79 0 002.201-5.927 34.299 34.299 0 00.999-8.423 35.639 35.639 0 00-.473-5.929 26.484 26.484 0 00-2.627-7.971q-3.1-5.9-8.55-9.15a22.24 22.24 0 00-5.472-2.333zm134 0a26.378 26.378 0 00-7.078-.917 28.877 28.877 0 00-3.234.177A22.923 22.923 0 00146.001 29q-5.7 3.7-8.85 10a28.736 28.736 0 00-2.154 5.819 34.053 34.053 0 00-.996 8.381 35.412 35.412 0 00.443 5.712 26.662 26.662 0 002.707 8.238 27.022 27.022 0 00.099.185 22.785 22.785 0 008.551 9.015 22.777 22.777 0 004.321 1.981 25.125 25.125 0 008.079 1.269 29.046 29.046 0 003.455-.2 22.779 22.779 0 009.795-3.45 24.527 24.527 0 002.673-1.995 25.573 25.573 0 006.177-8.005 28.79 28.79 0 002.201-5.927 34.299 34.299 0 00.999-8.423 35.639 35.639 0 00-.473-5.929 26.484 26.484 0 00-2.627-7.971q-3.1-5.9-8.55-9.15a22.24 22.24 0 00-5.472-2.333zm60 0a26.378 26.378 0 00-7.078-.917 28.877 28.877 0 00-3.234.177A22.923 22.923 0 00206.001 29q-5.7 3.7-8.85 10a28.736 28.736 0 00-2.154 5.819 34.053 34.053 0 00-.996 8.381 35.412 35.412 0 00.443 5.712 26.662 26.662 0 002.707 8.238 27.022 27.022 0 00.099.185 22.785 22.785 0 008.551 9.015 22.777 22.777 0 004.321 1.981 25.125 25.125 0 008.079 1.269 29.046 29.046 0 003.455-.2 22.779 22.779 0 009.795-3.45 24.527 24.527 0 002.673-1.995 25.573 25.573 0 006.177-8.005 28.79 28.79 0 002.201-5.927 34.299 34.299 0 00.999-8.423 35.639 35.639 0 00-.473-5.929 26.484 26.484 0 00-2.627-7.971q-3.1-5.9-8.55-9.15a22.24 22.24 0 00-5.472-2.333zm97 0a26.378 26.378 0 00-7.078-.917 28.877 28.877 0 00-3.234.177A22.923 22.923 0 00303.001 29q-5.7 3.7-8.85 10a28.736 28.736 0 00-2.154 5.819 34.053 34.053 0 00-.996 8.381 35.412 35.412 0 00.443 5.712 26.662 26.662 0 002.707 8.238 27.022 27.022 0 00.099.185 22.785 22.785 0 008.551 9.015 22.777 22.777 0 004.321 1.981 25.125 25.125 0 008.079 1.269 29.046 29.046 0 003.455-.2 22.779 22.779 0 009.795-3.45 24.527 24.527 0 002.673-1.995 25.573 25.573 0 006.177-8.005 28.79 28.79 0 002.201-5.927 34.299 34.299 0 00.999-8.423 35.639 35.639 0 00-.473-5.929 26.484 26.484 0 00-2.627-7.971q-3.1-5.9-8.55-9.15a22.24 22.24 0 00-5.472-2.333zm97 0a26.378 26.378 0 00-7.078-.917 28.877 28.877 0 00-3.234.177A22.923 22.923 0 00400.001 29q-5.7 3.7-8.85 10a28.736 28.736 0 00-2.154 5.819 34.053 34.053 0 00-.996 8.381 35.412 35.412 0 00.443 5.712 26.662 26.662 0 002.707 8.238 27.022 27.022 0 00.099.185 22.785 22.785 0 008.551 9.015 22.777 22.777 0 004.321 1.981 25.125 25.125 0 008.079 1.269 29.046 29.046 0 003.455-.2 22.779 22.779 0 009.795-3.45 24.527 24.527 0 002.673-1.995 25.573 25.573 0 006.177-8.005 28.79 28.79 0 002.201-5.927 34.299 34.299 0 00.999-8.423 35.639 35.639 0 00-.473-5.929 26.484 26.484 0 00-2.627-7.971q-3.1-5.9-8.55-9.15a22.24 22.24 0 00-5.472-2.333zm97 0a26.378 26.378 0 00-7.078-.917 28.877 28.877 0 00-3.234.177A22.923 22.923 0 00497.001 29q-5.7 3.7-8.85 10a28.736 28.736 0 00-2.154 5.819 34.053 34.053 0 00-.996 8.381 35.412 35.412 0 00.443 5.712 26.662 26.662 0 002.707 8.238 27.022 27.022 0 00.099.185 22.785 22.785 0 008.551 9.015 22.777 22.777 0 004.321 1.981 25.125 25.125 0 008.079 1.269 29.046 29.046 0 003.455-.2 22.779 22.779 0 009.795-3.45 24.527 24.527 0 002.673-1.995 25.573 25.573 0 006.177-8.005 28.79 28.79 0 002.201-5.927 34.299 34.299 0 00.999-8.423 35.639 35.639 0 00-.473-5.929 26.484 26.484 0 00-2.627-7.971q-3.1-5.9-8.55-9.15a22.24 22.24 0 00-5.472-2.333zm60 0a26.378 26.378 0 00-7.078-.917 28.877 28.877 0 00-3.234.177A22.923 22.923 0 00557.001 29q-5.7 3.7-8.85 10a28.736 28.736 0 00-2.154 5.819 34.053 34.053 0 00-.996 8.381 35.412 35.412 0 00.443 5.712 26.662 26.662 0 002.707 8.238 27.022 27.022 0 00.099.185 22.785 22.785 0 008.551 9.015 22.777 22.777 0 004.321 1.981 25.125 25.125 0 008.079 1.269 29.046 29.046 0 003.455-.2 22.779 22.779 0 009.795-3.45 24.527 24.527 0 002.673-1.995 25.573 25.573 0 006.177-8.005 28.79 28.79 0 002.201-5.927 34.299 34.299 0 00.999-8.423 35.639 35.639 0 00-.473-5.929 26.484 26.484 0 00-2.627-7.971q-3.1-5.9-8.55-9.15a22.24 22.24 0 00-5.472-2.333zm60 0a26.378 26.378 0 00-7.078-.917 28.877 28.877 0 00-3.234.177A22.923 22.923 0 00617.001 29q-5.7 3.7-8.85 10a28.736 28.736 0 00-2.154 5.819 34.053 34.053 0 00-.996 8.381 35.412 35.412 0 00.443 5.712 26.662 26.662 0 002.707 8.238 27.022 27.022 0 00.099.185 22.785 22.785 0 008.551 9.015 22.777 22.777 0 004.321 1.981 25.125 25.125 0 008.079 1.269 29.046 29.046 0 003.455-.2 22.779 22.779 0 009.795-3.45 24.527 24.527 0 002.673-1.995 25.573 25.573 0 006.177-8.005 28.79 28.79 0 002.201-5.927 34.299 34.299 0 00.999-8.423 35.639 35.639 0 00-.473-5.929 26.484 26.484 0 00-2.627-7.971q-3.1-5.9-8.55-9.15a22.24 22.24 0 00-5.472-2.333zm60 0a26.378 26.378 0 00-7.078-.917 28.877 28.877 0 00-3.234.177A22.923 22.923 0 00677.001 29q-5.7 3.7-8.85 10a28.736 28.736 0 00-2.154 5.819 34.053 34.053 0 00-.996 8.381 35.412 35.412 0 00.443 5.712 26.662 26.662 0 002.707 8.238 27.022 27.022 0 00.099.185 22.785 22.785 0 008.551 9.015 22.777 22.777 0 004.321 1.981 25.125 25.125 0 008.079 1.269 29.046 29.046 0 003.455-.2 22.779 22.779 0 009.795-3.45 24.527 24.527 0 002.673-1.995 25.573 25.573 0 006.177-8.005 28.79 28.79 0 002.201-5.927 34.299 34.299 0 00.999-8.423 35.639 35.639 0 00-.473-5.929 26.484 26.484 0 00-2.627-7.971q-3.1-5.9-8.55-9.15a22.24 22.24 0 00-5.472-2.333zm60 0a26.378 26.378 0 00-7.078-.917 28.877 28.877 0 00-3.234.177A22.923 22.923 0 00737.001 29q-5.7 3.7-8.85 10a28.736 28.736 0 00-2.154 5.819 34.053 34.053 0 00-.996 8.381 35.412 35.412 0 00.443 5.712 26.662 26.662 0 002.707 8.238 27.022 27.022 0 00.099.185 22.785 22.785 0 008.551 9.015 22.777 22.777 0 004.321 1.981 25.125 25.125 0 008.079 1.269 29.046 29.046 0 003.455-.2 22.779 22.779 0 009.795-3.45 24.527 24.527 0 002.673-1.995 25.573 25.573 0 006.177-8.005 28.79 28.79 0 002.201-5.927 34.299 34.299 0 00.999-8.423 35.639 35.639 0 00-.473-5.929 26.484 26.484 0 00-2.627-7.971q-3.1-5.9-8.55-9.15a22.24 22.24 0 00-5.472-2.333zm97 0a26.378 26.378 0 00-7.078-.917 28.877 28.877 0 00-3.234.177A22.923 22.923 0 00834.001 29q-5.7 3.7-8.85 10a28.736 28.736 0 00-2.154 5.819 34.053 34.053 0 00-.996 8.381 35.412 35.412 0 00.443 5.712 26.662 26.662 0 002.707 8.238 27.022 27.022 0 00.099.185 22.785 22.785 0 008.551 9.015 22.777 22.777 0 004.321 1.981 25.125 25.125 0 008.079 1.269 29.046 29.046 0 003.455-.2 22.779 22.779 0 009.795-3.45 24.527 24.527 0 002.673-1.995 25.573 25.573 0 006.177-8.005 28.79 28.79 0 002.201-5.927 34.299 34.299 0 00.999-8.423 35.639 35.639 0 00-.473-5.929 26.484 26.484 0 00-2.627-7.971q-3.1-5.9-8.55-9.15a22.24 22.24 0 00-5.472-2.333zm97 0a26.378 26.378 0 00-7.078-.917 28.877 28.877 0 00-3.234.177A22.923 22.923 0 00931.001 29q-5.7 3.7-8.85 10a28.736 28.736 0 00-2.154 5.819 34.053 34.053 0 00-.996 8.381 35.412 35.412 0 00.443 5.712 26.662 26.662 0 002.707 8.238 27.022 27.022 0 00.099.185 22.785 22.785 0 008.551 9.015 22.777 22.777 0 004.321 1.981 25.125 25.125 0 008.079 1.269 29.046 29.046 0 003.455-.2 22.779 22.779 0 009.795-3.45 24.527 24.527 0 002.673-1.995 25.573 25.573 0 006.177-8.005 28.79 28.79 0 002.201-5.927 34.299 34.299 0 00.999-8.423 35.639 35.639 0 00-.473-5.929 26.484 26.484 0 00-2.627-7.971q-3.1-5.9-8.55-9.15a22.24 22.24 0 00-5.472-2.333zm60 0a26.378 26.378 0 00-7.078-.917 28.877 28.877 0 00-3.234.177A22.923 22.923 0 00991.001 29q-5.7 3.7-8.85 10a28.736 28.736 0 00-2.154 5.819 34.053 34.053 0 00-.996 8.381 35.412 35.412 0 00.443 5.712 26.662 26.662 0 002.707 8.238 27.022 27.022 0 00.099.185 22.785 22.785 0 008.551 9.015 22.777 22.777 0 004.321 1.981 25.125 25.125 0 008.079 1.269 29.046 29.046 0 003.455-.2 22.779 22.779 0 009.795-3.45 24.527 24.527 0 002.673-1.995 25.573 25.573 0 006.177-8.005 28.79 28.79 0 002.201-5.927 34.299 34.299 0 00.999-8.423 35.639 35.639 0 00-.473-5.929 26.484 26.484 0 00-2.627-7.971q-3.1-5.9-8.55-9.15a22.24 22.24 0 00-5.472-2.333zm97 0a26.378 26.378 0 00-7.078-.917 28.877 28.877 0 00-3.234.177A22.923 22.923 0 001088.001 29q-5.7 3.7-8.85 10a28.736 28.736 0 00-2.154 5.819 34.053 34.053 0 00-.996 8.381 35.412 35.412 0 00.443 5.712 26.662 26.662 0 002.707 8.238 27.022 27.022 0 00.099.185 22.785 22.785 0 008.551 9.015 22.777 22.777 0 004.321 1.981 25.125 25.125 0 008.079 1.269 29.046 29.046 0 003.455-.2 22.779 22.779 0 009.795-3.45 24.527 24.527 0 002.673-1.995 25.573 25.573 0 006.177-8.005 28.79 28.79 0 002.201-5.927 34.299 34.299 0 00.999-8.423 35.639 35.639 0 00-.473-5.929 26.484 26.484 0 00-2.627-7.971q-3.1-5.9-8.55-9.15a22.24 22.24 0 00-5.472-2.333zM24.401 27.1a10.899 10.899 0 00-8.038 3.513 18.317 18.317 0 00-2.512 3.287 24.639 24.639 0 00-2.609 6.137q-.855 3.011-1.236 6.64a59.767 59.767 0 00-.305 6.223 62.926 62.926 0 00.237 5.646q.234 2.593.7 4.794a26.316 26.316 0 001.163 4.01 23.069 23.069 0 001.696 3.536q1.102 1.846 2.46 3.17a12.21 12.21 0 001.494 1.244 13.542 13.542 0 004.713 2.163 12.769 12.769 0 002.937.337 10.964 10.964 0 008.252-3.694 18.257 18.257 0 002.348-3.156 25.124 25.124 0 002.577-6.168q.851-3.043 1.226-6.706a60.695 60.695 0 00.297-6.176 62.926 62.926 0 00-.237-5.646q-.235-2.592-.7-4.793a26.316 26.316 0 00-1.163-4.011 23.399 23.399 0 00-1.61-3.392q-1.058-1.813-2.353-3.12a11.933 11.933 0 00-1.637-1.388q-3.5-2.45-7.7-2.45zm134 0a10.899 10.899 0 00-8.038 3.513 18.317 18.317 0 00-2.512 3.287 24.639 24.639 0 00-2.609 6.137q-.855 3.011-1.236 6.64a59.767 59.767 0 00-.305 6.223 62.926 62.926 0 00.237 5.646q.234 2.593.7 4.794a26.316 26.316 0 001.163 4.01 23.069 23.069 0 001.696 3.536q1.102 1.846 2.46 3.17a12.21 12.21 0 001.494 1.244 13.542 13.542 0 004.713 2.163 12.769 12.769 0 002.937.337 10.964 10.964 0 008.252-3.694 18.257 18.257 0 002.348-3.156 25.124 25.124 0 002.577-6.168q.851-3.043 1.226-6.706a60.695 60.695 0 00.297-6.176 62.926 62.926 0 00-.237-5.646q-.235-2.592-.7-4.793a26.316 26.316 0 00-1.163-4.011 23.399 23.399 0 00-1.61-3.392q-1.058-1.813-2.353-3.12a11.933 11.933 0 00-1.637-1.388q-3.5-2.45-7.7-2.45zm60 0a10.899 10.899 0 00-8.038 3.513 18.317 18.317 0 00-2.512 3.287 24.639 24.639 0 00-2.609 6.137q-.855 3.011-1.236 6.64a59.767 59.767 0 00-.305 6.223 62.926 62.926 0 00.237 5.646q.234 2.593.7 4.794a26.316 26.316 0 001.163 4.01 23.069 23.069 0 001.696 3.536q1.102 1.846 2.46 3.17a12.21 12.21 0 001.494 1.244 13.542 13.542 0 004.713 2.163 12.769 12.769 0 002.937.337 10.964 10.964 0 008.252-3.694 18.257 18.257 0 002.348-3.156 25.124 25.124 0 002.577-6.168q.851-3.043 1.226-6.706a60.695 60.695 0 00.297-6.176 62.926 62.926 0 00-.237-5.646q-.235-2.592-.7-4.793a26.316 26.316 0 00-1.163-4.011 23.399 23.399 0 00-1.61-3.392q-1.058-1.813-2.353-3.12a11.933 11.933 0 00-1.637-1.388q-3.5-2.45-7.7-2.45zm97 0a10.899 10.899 0 00-8.038 3.513 18.317 18.317 0 00-2.512 3.287 24.639 24.639 0 00-2.609 6.137q-.855 3.011-1.236 6.64a59.767 59.767 0 00-.305 6.223 62.926 62.926 0 00.237 5.646q.234 2.593.7 4.794a26.316 26.316 0 001.163 4.01 23.069 23.069 0 001.696 3.536q1.102 1.846 2.46 3.17a12.21 12.21 0 001.494 1.244 13.542 13.542 0 004.713 2.163 12.769 12.769 0 002.937.337 10.964 10.964 0 008.252-3.694 18.257 18.257 0 002.348-3.156 25.124 25.124 0 002.577-6.168q.851-3.043 1.226-6.706a60.695 60.695 0 00.297-6.176 62.926 62.926 0 00-.237-5.646q-.235-2.592-.7-4.793a26.316 26.316 0 00-1.163-4.011 23.399 23.399 0 00-1.61-3.392q-1.058-1.813-2.353-3.12a11.933 11.933 0 00-1.637-1.388q-3.5-2.45-7.7-2.45zm97 0a10.899 10.899 0 00-8.038 3.513 18.317 18.317 0 00-2.512 3.287 24.639 24.639 0 00-2.609 6.137q-.855 3.011-1.236 6.64a59.767 59.767 0 00-.305 6.223 62.926 62.926 0 00.237 5.646q.234 2.593.7 4.794a26.316 26.316 0 001.163 4.01 23.069 23.069 0 001.696 3.536q1.102 1.846 2.46 3.17a12.21 12.21 0 001.494 1.244 13.542 13.542 0 004.713 2.163 12.769 12.769 0 002.937.337 10.964 10.964 0 008.252-3.694 18.257 18.257 0 002.348-3.156 25.124 25.124 0 002.577-6.168q.851-3.043 1.226-6.706a60.695 60.695 0 00.297-6.176 62.926 62.926 0 00-.237-5.646q-.235-2.592-.7-4.793a26.316 26.316 0 00-1.163-4.011 23.399 23.399 0 00-1.61-3.392q-1.058-1.813-2.353-3.12a11.933 11.933 0 00-1.637-1.388q-3.5-2.45-7.7-2.45zm97 0a10.899 10.899 0 00-8.038 3.513 18.317 18.317 0 00-2.512 3.287 24.639 24.639 0 00-2.609 6.137q-.855 3.011-1.236 6.64a59.767 59.767 0 00-.305 6.223 62.926 62.926 0 00.237 5.646q.234 2.593.7 4.794a26.316 26.316 0 001.163 4.01 23.069 23.069 0 001.696 3.536q1.102 1.846 2.46 3.17a12.21 12.21 0 001.494 1.244 13.542 13.542 0 004.713 2.163 12.769 12.769 0 002.937.337 10.964 10.964 0 008.252-3.694 18.257 18.257 0 002.348-3.156 25.124 25.124 0 002.577-6.168q.851-3.043 1.226-6.706a60.695 60.695 0 00.297-6.176 62.926 62.926 0 00-.237-5.646q-.235-2.592-.7-4.793a26.316 26.316 0 00-1.163-4.011 23.399 23.399 0 00-1.61-3.392q-1.058-1.813-2.353-3.12a11.933 11.933 0 00-1.637-1.388q-3.5-2.45-7.7-2.45zm60 0a10.899 10.899 0 00-8.038 3.513 18.317 18.317 0 00-2.512 3.287 24.639 24.639 0 00-2.609 6.137q-.855 3.011-1.236 6.64a59.767 59.767 0 00-.305 6.223 62.926 62.926 0 00.237 5.646q.234 2.593.7 4.794a26.316 26.316 0 001.163 4.01 23.069 23.069 0 001.696 3.536q1.102 1.846 2.46 3.17a12.21 12.21 0 001.494 1.244 13.542 13.542 0 004.713 2.163 12.769 12.769 0 002.937.337 10.964 10.964 0 008.252-3.694 18.257 18.257 0 002.348-3.156 25.124 25.124 0 002.577-6.168q.851-3.043 1.226-6.706a60.695 60.695 0 00.297-6.176 62.926 62.926 0 00-.237-5.646q-.235-2.592-.7-4.793a26.316 26.316 0 00-1.163-4.011 23.399 23.399 0 00-1.61-3.392q-1.058-1.813-2.353-3.12a11.933 11.933 0 00-1.637-1.388q-3.5-2.45-7.7-2.45zm60 0a10.899 10.899 0 00-8.038 3.513 18.317 18.317 0 00-2.512 3.287 24.639 24.639 0 00-2.609 6.137q-.855 3.011-1.236 6.64a59.767 59.767 0 00-.305 6.223 62.926 62.926 0 00.237 5.646q.234 2.593.7 4.794a26.316 26.316 0 001.163 4.01 23.069 23.069 0 001.696 3.536q1.102 1.846 2.46 3.17a12.21 12.21 0 001.494 1.244 13.542 13.542 0 004.713 2.163 12.769 12.769 0 002.937.337 10.964 10.964 0 008.252-3.694 18.257 18.257 0 002.348-3.156 25.124 25.124 0 002.577-6.168q.851-3.043 1.226-6.706a60.695 60.695 0 00.297-6.176 62.926 62.926 0 00-.237-5.646q-.235-2.592-.7-4.793a26.316 26.316 0 00-1.163-4.011 23.399 23.399 0 00-1.61-3.392q-1.058-1.813-2.353-3.12a11.933 11.933 0 00-1.637-1.388q-3.5-2.45-7.7-2.45zm60 0a10.899 10.899 0 00-8.038 3.513 18.317 18.317 0 00-2.512 3.287 24.639 24.639 0 00-2.609 6.137q-.855 3.011-1.236 6.64a59.767 59.767 0 00-.305 6.223 62.926 62.926 0 00.237 5.646q.234 2.593.7 4.794a26.316 26.316 0 001.163 4.01 23.069 23.069 0 001.696 3.536q1.102 1.846 2.46 3.17a12.21 12.21 0 001.494 1.244 13.542 13.542 0 004.713 2.163 12.769 12.769 0 002.937.337 10.964 10.964 0 008.252-3.694 18.257 18.257 0 002.348-3.156 25.124 25.124 0 002.577-6.168q.851-3.043 1.226-6.706a60.695 60.695 0 00.297-6.176 62.926 62.926 0 00-.237-5.646q-.235-2.592-.7-4.793a26.316 26.316 0 00-1.163-4.011 23.399 23.399 0 00-1.61-3.392q-1.058-1.813-2.353-3.12a11.933 11.933 0 00-1.637-1.388q-3.5-2.45-7.7-2.45zm60 0a10.899 10.899 0 00-8.038 3.513 18.317 18.317 0 00-2.512 3.287 24.639 24.639 0 00-2.609 6.137q-.855 3.011-1.236 6.64a59.767 59.767 0 00-.305 6.223 62.926 62.926 0 00.237 5.646q.234 2.593.7 4.794a26.316 26.316 0 001.163 4.01 23.069 23.069 0 001.696 3.536q1.102 1.846 2.46 3.17a12.21 12.21 0 001.494 1.244 13.542 13.542 0 004.713 2.163 12.769 12.769 0 002.937.337 10.964 10.964 0 008.252-3.694 18.257 18.257 0 002.348-3.156 25.124 25.124 0 002.577-6.168q.851-3.043 1.226-6.706a60.695 60.695 0 00.297-6.176 62.926 62.926 0 00-.237-5.646q-.235-2.592-.7-4.793a26.316 26.316 0 00-1.163-4.011 23.399 23.399 0 00-1.61-3.392q-1.058-1.813-2.353-3.12a11.933 11.933 0 00-1.637-1.388q-3.5-2.45-7.7-2.45zm97 0a10.899 10.899 0 00-8.038 3.513 18.317 18.317 0 00-2.512 3.287 24.639 24.639 0 00-2.609 6.137q-.855 3.011-1.236 6.64a59.767 59.767 0 00-.305 6.223 62.926 62.926 0 00.237 5.646q.234 2.593.7 4.794a26.316 26.316 0 001.163 4.01 23.069 23.069 0 001.696 3.536q1.102 1.846 2.46 3.17a12.21 12.21 0 001.494 1.244 13.542 13.542 0 004.713 2.163 12.769 12.769 0 002.937.337 10.964 10.964 0 008.252-3.694 18.257 18.257 0 002.348-3.156 25.124 25.124 0 002.577-6.168q.851-3.043 1.226-6.706a60.695 60.695 0 00.297-6.176 62.926 62.926 0 00-.237-5.646q-.235-2.592-.7-4.793a26.316 26.316 0 00-1.163-4.011 23.399 23.399 0 00-1.61-3.392q-1.058-1.813-2.353-3.12a11.933 11.933 0 00-1.637-1.388q-3.5-2.45-7.7-2.45zm97 0a10.899 10.899 0 00-8.038 3.513 18.317 18.317 0 00-2.512 3.287 24.639 24.639 0 00-2.609 6.137q-.855 3.011-1.236 6.64a59.767 59.767 0 00-.305 6.223 62.926 62.926 0 00.237 5.646q.234 2.593.7 4.794a26.316 26.316 0 001.163 4.01 23.069 23.069 0 001.696 3.536q1.102 1.846 2.46 3.17a12.21 12.21 0 001.494 1.244 13.542 13.542 0 004.713 2.163 12.769 12.769 0 002.937.337 10.964 10.964 0 008.252-3.694 18.257 18.257 0 002.348-3.156 25.124 25.124 0 002.577-6.168q.851-3.043 1.226-6.706a60.695 60.695 0 00.297-6.176 62.926 62.926 0 00-.237-5.646q-.235-2.592-.7-4.793a26.316 26.316 0 00-1.163-4.011 23.399 23.399 0 00-1.61-3.392q-1.058-1.813-2.353-3.12a11.933 11.933 0 00-1.637-1.388q-3.5-2.45-7.7-2.45zm60 0a10.899 10.899 0 00-8.038 3.513 18.317 18.317 0 00-2.512 3.287 24.639 24.639 0 00-2.609 6.137q-.855 3.011-1.236 6.64a59.767 59.767 0 00-.305 6.223 62.926 62.926 0 00.237 5.646q.234 2.593.7 4.794a26.316 26.316 0 001.163 4.01 23.069 23.069 0 001.696 3.536q1.102 1.846 2.46 3.17a12.21 12.21 0 001.494 1.244 13.542 13.542 0 004.713 2.163 12.769 12.769 0 002.937.337 10.964 10.964 0 008.252-3.694 18.257 18.257 0 002.348-3.156 25.124 25.124 0 002.577-6.168q.851-3.043 1.226-6.706a60.695 60.695 0 00.297-6.176 62.926 62.926 0 00-.237-5.646q-.235-2.592-.7-4.793a26.316 26.316 0 00-1.163-4.011 23.399 23.399 0 00-1.61-3.392q-1.058-1.813-2.353-3.12a11.933 11.933 0 00-1.637-1.388q-3.5-2.45-7.7-2.45zm97 0a10.899 10.899 0 00-8.038 3.513 18.317 18.317 0 00-2.512 3.287 24.639 24.639 0 00-2.609 6.137q-.855 3.011-1.236 6.64a59.767 59.767 0 00-.305 6.223 62.926 62.926 0 00.237 5.646q.234 2.593.7 4.794a26.316 26.316 0 001.163 4.01 23.069 23.069 0 001.696 3.536q1.102 1.846 2.46 3.17a12.21 12.21 0 001.494 1.244 13.542 13.542 0 004.713 2.163 12.769 12.769 0 002.937.337 10.964 10.964 0 008.252-3.694 18.257 18.257 0 002.348-3.156 25.124 25.124 0 002.577-6.168q.851-3.043 1.226-6.706a60.695 60.695 0 00.297-6.176 62.926 62.926 0 00-.237-5.646q-.235-2.592-.7-4.793a26.316 26.316 0 00-1.163-4.011 23.399 23.399 0 00-1.61-3.392q-1.058-1.813-2.353-3.12a11.933 11.933 0 00-1.637-1.388q-3.5-2.45-7.7-2.45z" vector-effect="non-scaling-stroke" stroke-linecap="round" fill-rule="evenodd" font-size="12" stroke="#000" stroke-width=".25mm"/></svg>