<svg width="1251.601" height="97" viewBox="0 0 1251.601 97" xmlns="http://www.w3.org/2000/svg"><g id="svgGroup" stroke-linecap="round" fill-rule="evenodd" font-size="9pt" stroke="#000" stroke-width="0.25mm" fill="black" style="stroke:#000;stroke-width:0.25mm;fill:black"><path d="M 1221.601 29.1 L 1222.701 30.3 A 19.768 19.768 0 0 0 1219.738 32.023 Q 1217.551 33.581 1216.301 35.55 Q 1214.301 38.7 1214.301 42 A 10.477 10.477 0 0 0 1216.239 48.061 A 12.725 12.725 0 0 0 1216.301 48.15 A 23.136 23.136 0 0 0 1218.941 51.256 A 30.818 30.818 0 0 0 1221.601 53.6 A 126.62 126.62 0 0 0 1226.832 57.5 A 145.193 145.193 0 0 0 1228.701 58.8 Q 1233.901 62.3 1238.101 65.55 A 33.045 33.045 0 0 1 1241.967 69.035 A 25.515 25.515 0 0 1 1244.751 72.55 Q 1247.201 76.3 1247.201 81.3 Q 1247.201 85.9 1245.051 89.45 A 14.592 14.592 0 0 1 1239.437 94.744 A 17.52 17.52 0 0 1 1238.951 95 A 18.051 18.051 0 0 1 1233.899 96.644 A 24.763 24.763 0 0 1 1229.601 97 Q 1227.034 97 1225.053 96.598 A 15.034 15.034 0 0 1 1224.401 96.45 Q 1222.201 95.9 1220.701 95.3 A 17.389 17.389 0 0 1 1217.847 93.806 A 12.667 12.667 0 0 1 1215.051 91.35 A 10.01 10.01 0 0 1 1213.801 89.492 A 6.94 6.94 0 0 1 1213.001 86.3 Q 1213.001 84.1 1214.401 82.5 A 4.577 4.577 0 0 1 1217.154 80.994 A 6.704 6.704 0 0 1 1218.301 80.9 Q 1220.601 80.9 1222.201 82.35 Q 1223.801 83.8 1223.801 86.2 A 5.641 5.641 0 0 1 1222.87 89.294 A 6.816 6.816 0 0 1 1222.801 89.4 A 4.473 4.473 0 0 1 1221.318 90.772 Q 1220.543 91.228 1219.501 91.5 Q 1220.082 92.857 1221.745 93.651 A 7.097 7.097 0 0 0 1221.851 93.7 A 13.447 13.447 0 0 0 1224.672 94.619 A 15.765 15.765 0 0 0 1225.701 94.8 A 35.656 35.656 0 0 0 1227.191 94.983 Q 1227.924 95.056 1228.565 95.084 A 17.216 17.216 0 0 0 1229.301 95.1 A 17.562 17.562 0 0 0 1231.803 94.933 Q 1233.098 94.746 1234.158 94.35 A 7.92 7.92 0 0 0 1235.751 93.55 A 10.015 10.015 0 0 0 1237.881 91.692 A 8.508 8.508 0 0 0 1239.151 89.7 A 12.006 12.006 0 0 0 1239.97 87.285 A 9.719 9.719 0 0 0 1240.201 85.2 A 11.396 11.396 0 0 0 1237.701 78 A 28.533 28.533 0 0 0 1234.256 74.341 A 36.418 36.418 0 0 0 1231.351 72 Q 1227.501 69.2 1223.601 66.5 A 114.918 114.918 0 0 1 1220.219 64.088 Q 1217.582 62.131 1215.551 60.35 Q 1212.301 57.5 1210.601 54.3 A 14.548 14.548 0 0 1 1209.021 49.115 A 18.196 18.196 0 0 1 1208.901 47 A 18.549 18.549 0 0 1 1211.274 37.977 A 22.089 22.089 0 0 1 1211.601 37.4 Q 1214.301 32.8 1221.601 29.1 Z M 1238.701 67.7 L 1237.801 66.7 A 22.802 22.802 0 0 0 1240.708 64.91 Q 1242.17 63.84 1243.217 62.642 A 11.794 11.794 0 0 0 1244.201 61.35 A 12.452 12.452 0 0 0 1245.761 58.039 A 10.701 10.701 0 0 0 1246.201 55 Q 1246.201 51.6 1244.201 48.8 A 23.351 23.351 0 0 0 1241.709 45.882 A 31.626 31.626 0 0 0 1238.901 43.4 A 126.62 126.62 0 0 0 1233.669 39.5 A 145.192 145.192 0 0 0 1231.801 38.2 Q 1226.601 34.6 1222.401 31.4 A 31.991 31.991 0 0 1 1218.483 27.899 A 24.926 24.926 0 0 1 1215.751 24.45 Q 1213.301 20.7 1213.301 15.7 A 17.339 17.339 0 0 1 1213.821 11.364 A 14.011 14.011 0 0 1 1215.451 7.5 A 14.47 14.47 0 0 1 1220.6 2.541 A 17.699 17.699 0 0 1 1221.601 2 A 18.659 18.659 0 0 1 1227.108 0.281 A 24.617 24.617 0 0 1 1230.901 0 Q 1233.467 0 1235.448 0.403 A 15.034 15.034 0 0 1 1236.101 0.55 Q 1238.301 1.1 1239.801 1.7 A 17.389 17.389 0 0 1 1242.654 3.194 A 12.667 12.667 0 0 1 1245.451 5.65 A 10.01 10.01 0 0 1 1246.7 7.509 A 6.94 6.94 0 0 1 1247.501 10.7 A 5.986 5.986 0 0 1 1247.061 13.014 A 5.65 5.65 0 0 1 1246.151 14.5 Q 1244.801 16.1 1242.201 16.1 Q 1240.001 16.1 1238.351 14.65 A 4.773 4.773 0 0 1 1236.716 11.26 A 6.598 6.598 0 0 1 1236.701 10.8 A 5.641 5.641 0 0 1 1237.632 7.706 A 6.816 6.816 0 0 1 1237.701 7.6 A 4.473 4.473 0 0 1 1239.183 6.229 Q 1239.958 5.772 1241.001 5.5 A 4.284 4.284 0 0 0 1239.313 3.643 A 5.843 5.843 0 0 0 1238.551 3.25 Q 1236.801 2.5 1234.801 2.2 A 31.527 31.527 0 0 0 1233.371 2.017 Q 1232.663 1.944 1232.031 1.917 A 16.836 16.836 0 0 0 1231.301 1.9 A 17.625 17.625 0 0 0 1228.677 2.083 Q 1227.309 2.29 1226.189 2.728 A 8.428 8.428 0 0 0 1224.751 3.45 A 10.26 10.26 0 0 0 1222.856 4.969 A 7.838 7.838 0 0 0 1221.301 7.25 Q 1220.301 9.5 1220.301 11.8 Q 1220.301 15.7 1222.851 18.95 A 30.319 30.319 0 0 0 1226.736 23.022 A 37.303 37.303 0 0 0 1229.201 25 Q 1233.001 27.8 1236.901 30.5 Q 1241.701 33.8 1245.001 36.65 A 24.688 24.688 0 0 1 1247.727 39.382 A 18.036 18.036 0 0 1 1249.951 42.65 A 14.266 14.266 0 0 1 1251.387 47.117 A 18.8 18.8 0 0 1 1251.601 50 A 17.401 17.401 0 0 1 1249.533 58.164 A 21.261 21.261 0 0 1 1248.801 59.45 A 16.456 16.456 0 0 1 1245.926 62.875 Q 1244.386 64.301 1242.331 65.629 A 39.955 39.955 0 0 1 1238.701 67.7 Z M 80.101 25.6 L 80.101 67.9 Q 80.101 72.047 81.743 73.88 A 4.178 4.178 0 0 0 82.301 74.4 Q 84.501 76.1 89.701 76.1 L 89.701 78.2 Q 88.169 78.124 85.554 78.018 A 1129.937 1129.937 0 0 0 83.851 77.95 A 201.968 201.968 0 0 0 76.922 77.802 A 221.596 221.596 0 0 0 75.901 77.8 Q 71.301 77.8 67.051 77.95 Q 62.801 78.1 60.501 78.2 L 60.501 76.1 Q 63.775 76.1 66.106 75.392 A 10.068 10.068 0 0 0 68.301 74.45 A 5.119 5.119 0 0 0 70.465 71.832 Q 70.842 70.884 70.996 69.676 A 14.127 14.127 0 0 0 71.101 67.9 L 71.101 43.7 Q 71.101 38.9 70.101 36.6 Q 69.101 34.3 66.551 33.6 Q 64.247 32.968 60.352 32.907 A 54.297 54.297 0 0 0 59.501 32.9 L 59.501 30.7 A 89.06 89.06 0 0 0 64.465 30.432 Q 68.463 30.096 71.501 29.4 A 24.026 24.026 0 0 0 79.501 26.012 A 23.019 23.019 0 0 0 80.101 25.6 Z M 117.101 25.6 L 117.101 67.9 Q 117.101 72.047 118.743 73.88 A 4.178 4.178 0 0 0 119.301 74.4 Q 121.501 76.1 126.701 76.1 L 126.701 78.2 Q 125.169 78.124 122.554 78.018 A 1129.937 1129.937 0 0 0 120.851 77.95 A 201.968 201.968 0 0 0 113.922 77.802 A 221.596 221.596 0 0 0 112.901 77.8 Q 108.301 77.8 104.051 77.95 Q 99.801 78.1 97.501 78.2 L 97.501 76.1 Q 100.775 76.1 103.106 75.392 A 10.068 10.068 0 0 0 105.301 74.45 A 5.119 5.119 0 0 0 107.465 71.832 Q 107.842 70.884 107.996 69.676 A 14.127 14.127 0 0 0 108.101 67.9 L 108.101 43.7 Q 108.101 38.9 107.101 36.6 Q 106.101 34.3 103.551 33.6 Q 101.247 32.968 97.352 32.907 A 54.297 54.297 0 0 0 96.501 32.9 L 96.501 30.7 A 89.06 89.06 0 0 0 101.465 30.432 Q 105.463 30.096 108.501 29.4 A 24.026 24.026 0 0 0 116.501 26.012 A 23.019 23.019 0 0 0 117.101 25.6 Z M 274.101 25.6 L 274.101 67.9 Q 274.101 72.047 275.743 73.88 A 4.178 4.178 0 0 0 276.301 74.4 Q 278.501 76.1 283.701 76.1 L 283.701 78.2 Q 282.169 78.124 279.554 78.018 A 1129.937 1129.937 0 0 0 277.851 77.95 A 201.968 201.968 0 0 0 270.922 77.802 A 221.596 221.596 0 0 0 269.901 77.8 Q 265.301 77.8 261.051 77.95 Q 256.801 78.1 254.501 78.2 L 254.501 76.1 Q 257.775 76.1 260.106 75.392 A 10.068 10.068 0 0 0 262.301 74.45 A 5.119 5.119 0 0 0 264.465 71.832 Q 264.842 70.884 264.996 69.676 A 14.127 14.127 0 0 0 265.101 67.9 L 265.101 43.7 Q 265.101 38.9 264.101 36.6 Q 263.101 34.3 260.551 33.6 Q 258.247 32.968 254.352 32.907 A 54.297 54.297 0 0 0 253.501 32.9 L 253.501 30.7 A 89.06 89.06 0 0 0 258.465 30.432 Q 262.463 30.096 265.501 29.4 A 24.026 24.026 0 0 0 273.501 26.012 A 23.019 23.019 0 0 0 274.101 25.6 Z M 371.101 25.6 L 371.101 67.9 Q 371.101 72.047 372.743 73.88 A 4.178 4.178 0 0 0 373.301 74.4 Q 375.501 76.1 380.701 76.1 L 380.701 78.2 Q 379.169 78.124 376.554 78.018 A 1129.937 1129.937 0 0 0 374.851 77.95 A 201.968 201.968 0 0 0 367.922 77.802 A 221.596 221.596 0 0 0 366.901 77.8 Q 362.301 77.8 358.051 77.95 Q 353.801 78.1 351.501 78.2 L 351.501 76.1 Q 354.775 76.1 357.106 75.392 A 10.068 10.068 0 0 0 359.301 74.45 A 5.119 5.119 0 0 0 361.465 71.832 Q 361.842 70.884 361.996 69.676 A 14.127 14.127 0 0 0 362.101 67.9 L 362.101 43.7 Q 362.101 38.9 361.101 36.6 Q 360.101 34.3 357.551 33.6 Q 355.247 32.968 351.352 32.907 A 54.297 54.297 0 0 0 350.501 32.9 L 350.501 30.7 A 89.06 89.06 0 0 0 355.465 30.432 Q 359.463 30.096 362.501 29.4 A 24.026 24.026 0 0 0 370.501 26.012 A 23.019 23.019 0 0 0 371.101 25.6 Z M 468.101 25.6 L 468.101 67.9 Q 468.101 72.047 469.743 73.88 A 4.178 4.178 0 0 0 470.301 74.4 Q 472.501 76.1 477.701 76.1 L 477.701 78.2 Q 476.169 78.124 473.554 78.018 A 1129.937 1129.937 0 0 0 471.851 77.95 A 201.968 201.968 0 0 0 464.922 77.802 A 221.596 221.596 0 0 0 463.901 77.8 Q 459.301 77.8 455.051 77.95 Q 450.801 78.1 448.501 78.2 L 448.501 76.1 Q 451.775 76.1 454.106 75.392 A 10.068 10.068 0 0 0 456.301 74.45 A 5.119 5.119 0 0 0 458.465 71.832 Q 458.842 70.884 458.996 69.676 A 14.127 14.127 0 0 0 459.101 67.9 L 459.101 43.7 Q 459.101 38.9 458.101 36.6 Q 457.101 34.3 454.551 33.6 Q 452.247 32.968 448.352 32.907 A 54.297 54.297 0 0 0 447.501 32.9 L 447.501 30.7 A 89.06 89.06 0 0 0 452.465 30.432 Q 456.463 30.096 459.501 29.4 A 24.026 24.026 0 0 0 467.501 26.012 A 23.019 23.019 0 0 0 468.101 25.6 Z M 805.101 25.6 L 805.101 67.9 Q 805.101 72.047 806.743 73.88 A 4.178 4.178 0 0 0 807.301 74.4 Q 809.501 76.1 814.701 76.1 L 814.701 78.2 Q 813.169 78.124 810.554 78.018 A 1129.937 1129.937 0 0 0 808.851 77.95 A 201.968 201.968 0 0 0 801.922 77.802 A 221.596 221.596 0 0 0 800.901 77.8 Q 796.301 77.8 792.051 77.95 Q 787.801 78.1 785.501 78.2 L 785.501 76.1 Q 788.775 76.1 791.106 75.392 A 10.068 10.068 0 0 0 793.301 74.45 A 5.119 5.119 0 0 0 795.465 71.832 Q 795.842 70.884 795.996 69.676 A 14.127 14.127 0 0 0 796.101 67.9 L 796.101 43.7 Q 796.101 38.9 795.101 36.6 Q 794.101 34.3 791.551 33.6 Q 789.247 32.968 785.352 32.907 A 54.297 54.297 0 0 0 784.501 32.9 L 784.501 30.7 A 89.06 89.06 0 0 0 789.465 30.432 Q 793.463 30.096 796.501 29.4 A 24.026 24.026 0 0 0 804.501 26.012 A 23.019 23.019 0 0 0 805.101 25.6 Z M 902.101 25.6 L 902.101 67.9 Q 902.101 72.047 903.743 73.88 A 4.178 4.178 0 0 0 904.301 74.4 Q 906.501 76.1 911.701 76.1 L 911.701 78.2 Q 910.169 78.124 907.554 78.018 A 1129.937 1129.937 0 0 0 905.851 77.95 A 201.968 201.968 0 0 0 898.922 77.802 A 221.596 221.596 0 0 0 897.901 77.8 Q 893.301 77.8 889.051 77.95 Q 884.801 78.1 882.501 78.2 L 882.501 76.1 Q 885.775 76.1 888.106 75.392 A 10.068 10.068 0 0 0 890.301 74.45 A 5.119 5.119 0 0 0 892.465 71.832 Q 892.842 70.884 892.996 69.676 A 14.127 14.127 0 0 0 893.101 67.9 L 893.101 43.7 Q 893.101 38.9 892.101 36.6 Q 891.101 34.3 888.551 33.6 Q 886.247 32.968 882.352 32.907 A 54.297 54.297 0 0 0 881.501 32.9 L 881.501 30.7 A 89.06 89.06 0 0 0 886.465 30.432 Q 890.463 30.096 893.501 29.4 A 24.026 24.026 0 0 0 901.501 26.012 A 23.019 23.019 0 0 0 902.101 25.6 Z M 1059.101 25.6 L 1059.101 67.9 Q 1059.101 72.047 1060.743 73.88 A 4.178 4.178 0 0 0 1061.301 74.4 Q 1063.501 76.1 1068.701 76.1 L 1068.701 78.2 Q 1067.169 78.124 1064.554 78.018 A 1129.937 1129.937 0 0 0 1062.851 77.95 A 201.968 201.968 0 0 0 1055.922 77.802 A 221.596 221.596 0 0 0 1054.901 77.8 Q 1050.301 77.8 1046.051 77.95 Q 1041.801 78.1 1039.501 78.2 L 1039.501 76.1 Q 1042.775 76.1 1045.106 75.392 A 10.068 10.068 0 0 0 1047.301 74.45 A 5.119 5.119 0 0 0 1049.465 71.832 Q 1049.842 70.884 1049.996 69.676 A 14.127 14.127 0 0 0 1050.101 67.9 L 1050.101 43.7 Q 1050.101 38.9 1049.101 36.6 Q 1048.101 34.3 1045.551 33.6 Q 1043.247 32.968 1039.352 32.907 A 54.297 54.297 0 0 0 1038.501 32.9 L 1038.501 30.7 A 89.06 89.06 0 0 0 1043.465 30.432 Q 1047.463 30.096 1050.501 29.4 A 24.026 24.026 0 0 0 1058.501 26.012 A 23.019 23.019 0 0 0 1059.101 25.6 Z M 1156.101 25.6 L 1156.101 67.9 Q 1156.101 72.047 1157.743 73.88 A 4.178 4.178 0 0 0 1158.301 74.4 Q 1160.501 76.1 1165.701 76.1 L 1165.701 78.2 Q 1164.169 78.124 1161.554 78.018 A 1129.937 1129.937 0 0 0 1159.851 77.95 A 201.968 201.968 0 0 0 1152.922 77.802 A 221.596 221.596 0 0 0 1151.901 77.8 Q 1147.301 77.8 1143.051 77.95 Q 1138.801 78.1 1136.501 78.2 L 1136.501 76.1 Q 1139.775 76.1 1142.106 75.392 A 10.068 10.068 0 0 0 1144.301 74.45 A 5.119 5.119 0 0 0 1146.465 71.832 Q 1146.842 70.884 1146.996 69.676 A 14.127 14.127 0 0 0 1147.101 67.9 L 1147.101 43.7 Q 1147.101 38.9 1146.101 36.6 Q 1145.101 34.3 1142.551 33.6 Q 1140.247 32.968 1136.352 32.907 A 54.297 54.297 0 0 0 1135.501 32.9 L 1135.501 30.7 A 89.06 89.06 0 0 0 1140.465 30.432 Q 1144.463 30.096 1147.501 29.4 A 24.026 24.026 0 0 0 1155.501 26.012 A 23.019 23.019 0 0 0 1156.101 25.6 Z M 1193.101 25.6 L 1193.101 67.9 Q 1193.101 72.047 1194.743 73.88 A 4.178 4.178 0 0 0 1195.301 74.4 Q 1197.501 76.1 1202.701 76.1 L 1202.701 78.2 Q 1201.169 78.124 1198.554 78.018 A 1129.937 1129.937 0 0 0 1196.851 77.95 A 201.968 201.968 0 0 0 1189.922 77.802 A 221.596 221.596 0 0 0 1188.901 77.8 Q 1184.301 77.8 1180.051 77.95 Q 1175.801 78.1 1173.501 78.2 L 1173.501 76.1 Q 1176.775 76.1 1179.106 75.392 A 10.068 10.068 0 0 0 1181.301 74.45 A 5.119 5.119 0 0 0 1183.465 71.832 Q 1183.842 70.884 1183.996 69.676 A 14.127 14.127 0 0 0 1184.101 67.9 L 1184.101 43.7 Q 1184.101 38.9 1183.101 36.6 Q 1182.101 34.3 1179.551 33.6 Q 1177.247 32.968 1173.352 32.907 A 54.297 54.297 0 0 0 1172.501 32.9 L 1172.501 30.7 A 89.06 89.06 0 0 0 1177.465 30.432 Q 1181.463 30.096 1184.501 29.4 A 24.026 24.026 0 0 0 1192.501 26.012 A 23.019 23.019 0 0 0 1193.101 25.6 Z M 32.379 26.217 A 26.378 26.378 0 0 0 25.301 25.3 A 28.877 28.877 0 0 0 22.067 25.477 A 22.923 22.923 0 0 0 12.001 29 Q 6.301 32.7 3.151 39 A 28.736 28.736 0 0 0 0.997 44.819 A 34.053 34.053 0 0 0 0.001 53.2 A 35.412 35.412 0 0 0 0.444 58.912 A 26.662 26.662 0 0 0 3.151 67.15 A 27.022 27.022 0 0 0 3.25 67.335 A 22.785 22.785 0 0 0 11.801 76.35 A 22.777 22.777 0 0 0 16.122 78.331 A 25.125 25.125 0 0 0 24.201 79.6 A 29.046 29.046 0 0 0 27.656 79.4 A 22.779 22.779 0 0 0 37.451 75.95 A 24.527 24.527 0 0 0 40.124 73.955 A 25.573 25.573 0 0 0 46.301 65.95 A 28.79 28.79 0 0 0 48.502 60.023 A 34.299 34.299 0 0 0 49.501 51.6 A 35.639 35.639 0 0 0 49.028 45.671 A 26.484 26.484 0 0 0 46.401 37.7 Q 43.301 31.8 37.851 28.55 A 22.24 22.24 0 0 0 32.379 26.217 Z M 166.379 26.217 A 26.378 26.378 0 0 0 159.301 25.3 A 28.877 28.877 0 0 0 156.067 25.477 A 22.923 22.923 0 0 0 146.001 29 Q 140.301 32.7 137.151 39 A 28.736 28.736 0 0 0 134.997 44.819 A 34.053 34.053 0 0 0 134.001 53.2 A 35.412 35.412 0 0 0 134.444 58.912 A 26.662 26.662 0 0 0 137.151 67.15 A 27.022 27.022 0 0 0 137.25 67.335 A 22.785 22.785 0 0 0 145.801 76.35 A 22.777 22.777 0 0 0 150.122 78.331 A 25.125 25.125 0 0 0 158.201 79.6 A 29.046 29.046 0 0 0 161.656 79.4 A 22.779 22.779 0 0 0 171.451 75.95 A 24.527 24.527 0 0 0 174.124 73.955 A 25.573 25.573 0 0 0 180.301 65.95 A 28.79 28.79 0 0 0 182.502 60.023 A 34.299 34.299 0 0 0 183.501 51.6 A 35.639 35.639 0 0 0 183.028 45.671 A 26.484 26.484 0 0 0 180.401 37.7 Q 177.301 31.8 171.851 28.55 A 22.24 22.24 0 0 0 166.379 26.217 Z M 226.379 26.217 A 26.378 26.378 0 0 0 219.301 25.3 A 28.877 28.877 0 0 0 216.067 25.477 A 22.923 22.923 0 0 0 206.001 29 Q 200.301 32.7 197.151 39 A 28.736 28.736 0 0 0 194.997 44.819 A 34.053 34.053 0 0 0 194.001 53.2 A 35.412 35.412 0 0 0 194.444 58.912 A 26.662 26.662 0 0 0 197.151 67.15 A 27.022 27.022 0 0 0 197.25 67.335 A 22.785 22.785 0 0 0 205.801 76.35 A 22.777 22.777 0 0 0 210.122 78.331 A 25.125 25.125 0 0 0 218.201 79.6 A 29.046 29.046 0 0 0 221.656 79.4 A 22.779 22.779 0 0 0 231.451 75.95 A 24.527 24.527 0 0 0 234.124 73.955 A 25.573 25.573 0 0 0 240.301 65.95 A 28.79 28.79 0 0 0 242.502 60.023 A 34.299 34.299 0 0 0 243.501 51.6 A 35.639 35.639 0 0 0 243.028 45.671 A 26.484 26.484 0 0 0 240.401 37.7 Q 237.301 31.8 231.851 28.55 A 22.24 22.24 0 0 0 226.379 26.217 Z M 323.379 26.217 A 26.378 26.378 0 0 0 316.301 25.3 A 28.877 28.877 0 0 0 313.067 25.477 A 22.923 22.923 0 0 0 303.001 29 Q 297.301 32.7 294.151 39 A 28.736 28.736 0 0 0 291.997 44.819 A 34.053 34.053 0 0 0 291.001 53.2 A 35.412 35.412 0 0 0 291.444 58.912 A 26.662 26.662 0 0 0 294.151 67.15 A 27.022 27.022 0 0 0 294.25 67.335 A 22.785 22.785 0 0 0 302.801 76.35 A 22.777 22.777 0 0 0 307.122 78.331 A 25.125 25.125 0 0 0 315.201 79.6 A 29.046 29.046 0 0 0 318.656 79.4 A 22.779 22.779 0 0 0 328.451 75.95 A 24.527 24.527 0 0 0 331.124 73.955 A 25.573 25.573 0 0 0 337.301 65.95 A 28.79 28.79 0 0 0 339.502 60.023 A 34.299 34.299 0 0 0 340.501 51.6 A 35.639 35.639 0 0 0 340.028 45.671 A 26.484 26.484 0 0 0 337.401 37.7 Q 334.301 31.8 328.851 28.55 A 22.24 22.24 0 0 0 323.379 26.217 Z M 420.379 26.217 A 26.378 26.378 0 0 0 413.301 25.3 A 28.877 28.877 0 0 0 410.067 25.477 A 22.923 22.923 0 0 0 400.001 29 Q 394.301 32.7 391.151 39 A 28.736 28.736 0 0 0 388.997 44.819 A 34.053 34.053 0 0 0 388.001 53.2 A 35.412 35.412 0 0 0 388.444 58.912 A 26.662 26.662 0 0 0 391.151 67.15 A 27.022 27.022 0 0 0 391.25 67.335 A 22.785 22.785 0 0 0 399.801 76.35 A 22.777 22.777 0 0 0 404.122 78.331 A 25.125 25.125 0 0 0 412.201 79.6 A 29.046 29.046 0 0 0 415.656 79.4 A 22.779 22.779 0 0 0 425.451 75.95 A 24.527 24.527 0 0 0 428.124 73.955 A 25.573 25.573 0 0 0 434.301 65.95 A 28.79 28.79 0 0 0 436.502 60.023 A 34.299 34.299 0 0 0 437.501 51.6 A 35.639 35.639 0 0 0 437.028 45.671 A 26.484 26.484 0 0 0 434.401 37.7 Q 431.301 31.8 425.851 28.55 A 22.24 22.24 0 0 0 420.379 26.217 Z M 517.379 26.217 A 26.378 26.378 0 0 0 510.301 25.3 A 28.877 28.877 0 0 0 507.067 25.477 A 22.923 22.923 0 0 0 497.001 29 Q 491.301 32.7 488.151 39 A 28.736 28.736 0 0 0 485.997 44.819 A 34.053 34.053 0 0 0 485.001 53.2 A 35.412 35.412 0 0 0 485.444 58.912 A 26.662 26.662 0 0 0 488.151 67.15 A 27.022 27.022 0 0 0 488.25 67.335 A 22.785 22.785 0 0 0 496.801 76.35 A 22.777 22.777 0 0 0 501.122 78.331 A 25.125 25.125 0 0 0 509.201 79.6 A 29.046 29.046 0 0 0 512.656 79.4 A 22.779 22.779 0 0 0 522.451 75.95 A 24.527 24.527 0 0 0 525.124 73.955 A 25.573 25.573 0 0 0 531.301 65.95 A 28.79 28.79 0 0 0 533.502 60.023 A 34.299 34.299 0 0 0 534.501 51.6 A 35.639 35.639 0 0 0 534.028 45.671 A 26.484 26.484 0 0 0 531.401 37.7 Q 528.301 31.8 522.851 28.55 A 22.24 22.24 0 0 0 517.379 26.217 Z M 577.379 26.217 A 26.378 26.378 0 0 0 570.301 25.3 A 28.877 28.877 0 0 0 567.067 25.477 A 22.923 22.923 0 0 0 557.001 29 Q 551.301 32.7 548.151 39 A 28.736 28.736 0 0 0 545.997 44.819 A 34.053 34.053 0 0 0 545.001 53.2 A 35.412 35.412 0 0 0 545.444 58.912 A 26.662 26.662 0 0 0 548.151 67.15 A 27.022 27.022 0 0 0 548.25 67.335 A 22.785 22.785 0 0 0 556.801 76.35 A 22.777 22.777 0 0 0 561.122 78.331 A 25.125 25.125 0 0 0 569.201 79.6 A 29.046 29.046 0 0 0 572.656 79.4 A 22.779 22.779 0 0 0 582.451 75.95 A 24.527 24.527 0 0 0 585.124 73.955 A 25.573 25.573 0 0 0 591.301 65.95 A 28.79 28.79 0 0 0 593.502 60.023 A 34.299 34.299 0 0 0 594.501 51.6 A 35.639 35.639 0 0 0 594.028 45.671 A 26.484 26.484 0 0 0 591.401 37.7 Q 588.301 31.8 582.851 28.55 A 22.24 22.24 0 0 0 577.379 26.217 Z M 637.379 26.217 A 26.378 26.378 0 0 0 630.301 25.3 A 28.877 28.877 0 0 0 627.067 25.477 A 22.923 22.923 0 0 0 617.001 29 Q 611.301 32.7 608.151 39 A 28.736 28.736 0 0 0 605.997 44.819 A 34.053 34.053 0 0 0 605.001 53.2 A 35.412 35.412 0 0 0 605.444 58.912 A 26.662 26.662 0 0 0 608.151 67.15 A 27.022 27.022 0 0 0 608.25 67.335 A 22.785 22.785 0 0 0 616.801 76.35 A 22.777 22.777 0 0 0 621.122 78.331 A 25.125 25.125 0 0 0 629.201 79.6 A 29.046 29.046 0 0 0 632.656 79.4 A 22.779 22.779 0 0 0 642.451 75.95 A 24.527 24.527 0 0 0 645.124 73.955 A 25.573 25.573 0 0 0 651.301 65.95 A 28.79 28.79 0 0 0 653.502 60.023 A 34.299 34.299 0 0 0 654.501 51.6 A 35.639 35.639 0 0 0 654.028 45.671 A 26.484 26.484 0 0 0 651.401 37.7 Q 648.301 31.8 642.851 28.55 A 22.24 22.24 0 0 0 637.379 26.217 Z M 697.379 26.217 A 26.378 26.378 0 0 0 690.301 25.3 A 28.877 28.877 0 0 0 687.067 25.477 A 22.923 22.923 0 0 0 677.001 29 Q 671.301 32.7 668.151 39 A 28.736 28.736 0 0 0 665.997 44.819 A 34.053 34.053 0 0 0 665.001 53.2 A 35.412 35.412 0 0 0 665.444 58.912 A 26.662 26.662 0 0 0 668.151 67.15 A 27.022 27.022 0 0 0 668.25 67.335 A 22.785 22.785 0 0 0 676.801 76.35 A 22.777 22.777 0 0 0 681.122 78.331 A 25.125 25.125 0 0 0 689.201 79.6 A 29.046 29.046 0 0 0 692.656 79.4 A 22.779 22.779 0 0 0 702.451 75.95 A 24.527 24.527 0 0 0 705.124 73.955 A 25.573 25.573 0 0 0 711.301 65.95 A 28.79 28.79 0 0 0 713.502 60.023 A 34.299 34.299 0 0 0 714.501 51.6 A 35.639 35.639 0 0 0 714.028 45.671 A 26.484 26.484 0 0 0 711.401 37.7 Q 708.301 31.8 702.851 28.55 A 22.24 22.24 0 0 0 697.379 26.217 Z M 757.379 26.217 A 26.378 26.378 0 0 0 750.301 25.3 A 28.877 28.877 0 0 0 747.067 25.477 A 22.923 22.923 0 0 0 737.001 29 Q 731.301 32.7 728.151 39 A 28.736 28.736 0 0 0 725.997 44.819 A 34.053 34.053 0 0 0 725.001 53.2 A 35.412 35.412 0 0 0 725.444 58.912 A 26.662 26.662 0 0 0 728.151 67.15 A 27.022 27.022 0 0 0 728.25 67.335 A 22.785 22.785 0 0 0 736.801 76.35 A 22.777 22.777 0 0 0 741.122 78.331 A 25.125 25.125 0 0 0 749.201 79.6 A 29.046 29.046 0 0 0 752.656 79.4 A 22.779 22.779 0 0 0 762.451 75.95 A 24.527 24.527 0 0 0 765.124 73.955 A 25.573 25.573 0 0 0 771.301 65.95 A 28.79 28.79 0 0 0 773.502 60.023 A 34.299 34.299 0 0 0 774.501 51.6 A 35.639 35.639 0 0 0 774.028 45.671 A 26.484 26.484 0 0 0 771.401 37.7 Q 768.301 31.8 762.851 28.55 A 22.24 22.24 0 0 0 757.379 26.217 Z M 854.379 26.217 A 26.378 26.378 0 0 0 847.301 25.3 A 28.877 28.877 0 0 0 844.067 25.477 A 22.923 22.923 0 0 0 834.001 29 Q 828.301 32.7 825.151 39 A 28.736 28.736 0 0 0 822.997 44.819 A 34.053 34.053 0 0 0 822.001 53.2 A 35.412 35.412 0 0 0 822.444 58.912 A 26.662 26.662 0 0 0 825.151 67.15 A 27.022 27.022 0 0 0 825.25 67.335 A 22.785 22.785 0 0 0 833.801 76.35 A 22.777 22.777 0 0 0 838.122 78.331 A 25.125 25.125 0 0 0 846.201 79.6 A 29.046 29.046 0 0 0 849.656 79.4 A 22.779 22.779 0 0 0 859.451 75.95 A 24.527 24.527 0 0 0 862.124 73.955 A 25.573 25.573 0 0 0 868.301 65.95 A 28.79 28.79 0 0 0 870.502 60.023 A 34.299 34.299 0 0 0 871.501 51.6 A 35.639 35.639 0 0 0 871.028 45.671 A 26.484 26.484 0 0 0 868.401 37.7 Q 865.301 31.8 859.851 28.55 A 22.24 22.24 0 0 0 854.379 26.217 Z M 951.379 26.217 A 26.378 26.378 0 0 0 944.301 25.3 A 28.877 28.877 0 0 0 941.067 25.477 A 22.923 22.923 0 0 0 931.001 29 Q 925.301 32.7 922.151 39 A 28.736 28.736 0 0 0 919.997 44.819 A 34.053 34.053 0 0 0 919.001 53.2 A 35.412 35.412 0 0 0 919.444 58.912 A 26.662 26.662 0 0 0 922.151 67.15 A 27.022 27.022 0 0 0 922.25 67.335 A 22.785 22.785 0 0 0 930.801 76.35 A 22.777 22.777 0 0 0 935.122 78.331 A 25.125 25.125 0 0 0 943.201 79.6 A 29.046 29.046 0 0 0 946.656 79.4 A 22.779 22.779 0 0 0 956.451 75.95 A 24.527 24.527 0 0 0 959.124 73.955 A 25.573 25.573 0 0 0 965.301 65.95 A 28.79 28.79 0 0 0 967.502 60.023 A 34.299 34.299 0 0 0 968.501 51.6 A 35.639 35.639 0 0 0 968.028 45.671 A 26.484 26.484 0 0 0 965.401 37.7 Q 962.301 31.8 956.851 28.55 A 22.24 22.24 0 0 0 951.379 26.217 Z M 1011.379 26.217 A 26.378 26.378 0 0 0 1004.301 25.3 A 28.877 28.877 0 0 0 1001.067 25.477 A 22.923 22.923 0 0 0 991.001 29 Q 985.301 32.7 982.151 39 A 28.736 28.736 0 0 0 979.997 44.819 A 34.053 34.053 0 0 0 979.001 53.2 A 35.412 35.412 0 0 0 979.444 58.912 A 26.662 26.662 0 0 0 982.151 67.15 A 27.022 27.022 0 0 0 982.25 67.335 A 22.785 22.785 0 0 0 990.801 76.35 A 22.777 22.777 0 0 0 995.122 78.331 A 25.125 25.125 0 0 0 1003.201 79.6 A 29.046 29.046 0 0 0 1006.656 79.4 A 22.779 22.779 0 0 0 1016.451 75.95 A 24.527 24.527 0 0 0 1019.124 73.955 A 25.573 25.573 0 0 0 1025.301 65.95 A 28.79 28.79 0 0 0 1027.502 60.023 A 34.299 34.299 0 0 0 1028.501 51.6 A 35.639 35.639 0 0 0 1028.028 45.671 A 26.484 26.484 0 0 0 1025.401 37.7 Q 1022.301 31.8 1016.851 28.55 A 22.24 22.24 0 0 0 1011.379 26.217 Z M 1108.379 26.217 A 26.378 26.378 0 0 0 1101.301 25.3 A 28.877 28.877 0 0 0 1098.067 25.477 A 22.923 22.923 0 0 0 1088.001 29 Q 1082.301 32.7 1079.151 39 A 28.736 28.736 0 0 0 1076.997 44.819 A 34.053 34.053 0 0 0 1076.001 53.2 A 35.412 35.412 0 0 0 1076.444 58.912 A 26.662 26.662 0 0 0 1079.151 67.15 A 27.022 27.022 0 0 0 1079.25 67.335 A 22.785 22.785 0 0 0 1087.801 76.35 A 22.777 22.777 0 0 0 1092.122 78.331 A 25.125 25.125 0 0 0 1100.201 79.6 A 29.046 29.046 0 0 0 1103.656 79.4 A 22.779 22.779 0 0 0 1113.451 75.95 A 24.527 24.527 0 0 0 1116.124 73.955 A 25.573 25.573 0 0 0 1122.301 65.95 A 28.79 28.79 0 0 0 1124.502 60.023 A 34.299 34.299 0 0 0 1125.501 51.6 A 35.639 35.639 0 0 0 1125.028 45.671 A 26.484 26.484 0 0 0 1122.401 37.7 Q 1119.301 31.8 1113.851 28.55 A 22.24 22.24 0 0 0 1108.379 26.217 Z M 24.401 27.1 A 10.899 10.899 0 0 0 16.363 30.613 A 18.317 18.317 0 0 0 13.851 33.9 A 24.639 24.639 0 0 0 11.242 40.037 Q 10.387 43.048 10.006 46.677 A 59.767 59.767 0 0 0 9.701 52.9 A 62.926 62.926 0 0 0 9.938 58.546 Q 10.172 61.139 10.638 63.34 A 26.316 26.316 0 0 0 11.801 67.35 A 23.069 23.069 0 0 0 13.497 70.886 Q 14.599 72.732 15.957 74.056 A 12.21 12.21 0 0 0 17.451 75.3 A 13.542 13.542 0 0 0 22.164 77.463 A 12.769 12.769 0 0 0 25.101 77.8 A 10.964 10.964 0 0 0 33.353 74.106 A 18.257 18.257 0 0 0 35.701 70.95 A 25.124 25.124 0 0 0 38.278 64.782 Q 39.129 61.739 39.504 58.076 A 60.695 60.695 0 0 0 39.801 51.9 A 62.926 62.926 0 0 0 39.564 46.254 Q 39.329 43.662 38.864 41.461 A 26.316 26.316 0 0 0 37.701 37.45 A 23.399 23.399 0 0 0 36.091 34.058 Q 35.033 32.245 33.738 30.938 A 11.933 11.933 0 0 0 32.101 29.55 Q 28.601 27.1 24.401 27.1 Z M 158.401 27.1 A 10.899 10.899 0 0 0 150.363 30.613 A 18.317 18.317 0 0 0 147.851 33.9 A 24.639 24.639 0 0 0 145.242 40.037 Q 144.387 43.048 144.006 46.677 A 59.767 59.767 0 0 0 143.701 52.9 A 62.926 62.926 0 0 0 143.938 58.546 Q 144.172 61.139 144.638 63.34 A 26.316 26.316 0 0 0 145.801 67.35 A 23.069 23.069 0 0 0 147.497 70.886 Q 148.599 72.732 149.957 74.056 A 12.21 12.21 0 0 0 151.451 75.3 A 13.542 13.542 0 0 0 156.164 77.463 A 12.769 12.769 0 0 0 159.101 77.8 A 10.964 10.964 0 0 0 167.353 74.106 A 18.257 18.257 0 0 0 169.701 70.95 A 25.124 25.124 0 0 0 172.278 64.782 Q 173.129 61.739 173.504 58.076 A 60.695 60.695 0 0 0 173.801 51.9 A 62.926 62.926 0 0 0 173.564 46.254 Q 173.329 43.662 172.864 41.461 A 26.316 26.316 0 0 0 171.701 37.45 A 23.399 23.399 0 0 0 170.091 34.058 Q 169.033 32.245 167.738 30.938 A 11.933 11.933 0 0 0 166.101 29.55 Q 162.601 27.1 158.401 27.1 Z M 218.401 27.1 A 10.899 10.899 0 0 0 210.363 30.613 A 18.317 18.317 0 0 0 207.851 33.9 A 24.639 24.639 0 0 0 205.242 40.037 Q 204.387 43.048 204.006 46.677 A 59.767 59.767 0 0 0 203.701 52.9 A 62.926 62.926 0 0 0 203.938 58.546 Q 204.172 61.139 204.638 63.34 A 26.316 26.316 0 0 0 205.801 67.35 A 23.069 23.069 0 0 0 207.497 70.886 Q 208.599 72.732 209.957 74.056 A 12.21 12.21 0 0 0 211.451 75.3 A 13.542 13.542 0 0 0 216.164 77.463 A 12.769 12.769 0 0 0 219.101 77.8 A 10.964 10.964 0 0 0 227.353 74.106 A 18.257 18.257 0 0 0 229.701 70.95 A 25.124 25.124 0 0 0 232.278 64.782 Q 233.129 61.739 233.504 58.076 A 60.695 60.695 0 0 0 233.801 51.9 A 62.926 62.926 0 0 0 233.564 46.254 Q 233.329 43.662 232.864 41.461 A 26.316 26.316 0 0 0 231.701 37.45 A 23.399 23.399 0 0 0 230.091 34.058 Q 229.033 32.245 227.738 30.938 A 11.933 11.933 0 0 0 226.101 29.55 Q 222.601 27.1 218.401 27.1 Z M 315.401 27.1 A 10.899 10.899 0 0 0 307.363 30.613 A 18.317 18.317 0 0 0 304.851 33.9 A 24.639 24.639 0 0 0 302.242 40.037 Q 301.387 43.048 301.006 46.677 A 59.767 59.767 0 0 0 300.701 52.9 A 62.926 62.926 0 0 0 300.938 58.546 Q 301.172 61.139 301.638 63.34 A 26.316 26.316 0 0 0 302.801 67.35 A 23.069 23.069 0 0 0 304.497 70.886 Q 305.599 72.732 306.957 74.056 A 12.21 12.21 0 0 0 308.451 75.3 A 13.542 13.542 0 0 0 313.164 77.463 A 12.769 12.769 0 0 0 316.101 77.8 A 10.964 10.964 0 0 0 324.353 74.106 A 18.257 18.257 0 0 0 326.701 70.95 A 25.124 25.124 0 0 0 329.278 64.782 Q 330.129 61.739 330.504 58.076 A 60.695 60.695 0 0 0 330.801 51.9 A 62.926 62.926 0 0 0 330.564 46.254 Q 330.329 43.662 329.864 41.461 A 26.316 26.316 0 0 0 328.701 37.45 A 23.399 23.399 0 0 0 327.091 34.058 Q 326.033 32.245 324.738 30.938 A 11.933 11.933 0 0 0 323.101 29.55 Q 319.601 27.1 315.401 27.1 Z M 412.401 27.1 A 10.899 10.899 0 0 0 404.363 30.613 A 18.317 18.317 0 0 0 401.851 33.9 A 24.639 24.639 0 0 0 399.242 40.037 Q 398.387 43.048 398.006 46.677 A 59.767 59.767 0 0 0 397.701 52.9 A 62.926 62.926 0 0 0 397.938 58.546 Q 398.172 61.139 398.638 63.34 A 26.316 26.316 0 0 0 399.801 67.35 A 23.069 23.069 0 0 0 401.497 70.886 Q 402.599 72.732 403.957 74.056 A 12.21 12.21 0 0 0 405.451 75.3 A 13.542 13.542 0 0 0 410.164 77.463 A 12.769 12.769 0 0 0 413.101 77.8 A 10.964 10.964 0 0 0 421.353 74.106 A 18.257 18.257 0 0 0 423.701 70.95 A 25.124 25.124 0 0 0 426.278 64.782 Q 427.129 61.739 427.504 58.076 A 60.695 60.695 0 0 0 427.801 51.9 A 62.926 62.926 0 0 0 427.564 46.254 Q 427.329 43.662 426.864 41.461 A 26.316 26.316 0 0 0 425.701 37.45 A 23.399 23.399 0 0 0 424.091 34.058 Q 423.033 32.245 421.738 30.938 A 11.933 11.933 0 0 0 420.101 29.55 Q 416.601 27.1 412.401 27.1 Z M 509.401 27.1 A 10.899 10.899 0 0 0 501.363 30.613 A 18.317 18.317 0 0 0 498.851 33.9 A 24.639 24.639 0 0 0 496.242 40.037 Q 495.387 43.048 495.006 46.677 A 59.767 59.767 0 0 0 494.701 52.9 A 62.926 62.926 0 0 0 494.938 58.546 Q 495.172 61.139 495.638 63.34 A 26.316 26.316 0 0 0 496.801 67.35 A 23.069 23.069 0 0 0 498.497 70.886 Q 499.599 72.732 500.957 74.056 A 12.21 12.21 0 0 0 502.451 75.3 A 13.542 13.542 0 0 0 507.164 77.463 A 12.769 12.769 0 0 0 510.101 77.8 A 10.964 10.964 0 0 0 518.353 74.106 A 18.257 18.257 0 0 0 520.701 70.95 A 25.124 25.124 0 0 0 523.278 64.782 Q 524.129 61.739 524.504 58.076 A 60.695 60.695 0 0 0 524.801 51.9 A 62.926 62.926 0 0 0 524.564 46.254 Q 524.329 43.662 523.864 41.461 A 26.316 26.316 0 0 0 522.701 37.45 A 23.399 23.399 0 0 0 521.091 34.058 Q 520.033 32.245 518.738 30.938 A 11.933 11.933 0 0 0 517.101 29.55 Q 513.601 27.1 509.401 27.1 Z M 569.401 27.1 A 10.899 10.899 0 0 0 561.363 30.613 A 18.317 18.317 0 0 0 558.851 33.9 A 24.639 24.639 0 0 0 556.242 40.037 Q 555.387 43.048 555.006 46.677 A 59.767 59.767 0 0 0 554.701 52.9 A 62.926 62.926 0 0 0 554.938 58.546 Q 555.172 61.139 555.638 63.34 A 26.316 26.316 0 0 0 556.801 67.35 A 23.069 23.069 0 0 0 558.497 70.886 Q 559.599 72.732 560.957 74.056 A 12.21 12.21 0 0 0 562.451 75.3 A 13.542 13.542 0 0 0 567.164 77.463 A 12.769 12.769 0 0 0 570.101 77.8 A 10.964 10.964 0 0 0 578.353 74.106 A 18.257 18.257 0 0 0 580.701 70.95 A 25.124 25.124 0 0 0 583.278 64.782 Q 584.129 61.739 584.504 58.076 A 60.695 60.695 0 0 0 584.801 51.9 A 62.926 62.926 0 0 0 584.564 46.254 Q 584.329 43.662 583.864 41.461 A 26.316 26.316 0 0 0 582.701 37.45 A 23.399 23.399 0 0 0 581.091 34.058 Q 580.033 32.245 578.738 30.938 A 11.933 11.933 0 0 0 577.101 29.55 Q 573.601 27.1 569.401 27.1 Z M 629.401 27.1 A 10.899 10.899 0 0 0 621.363 30.613 A 18.317 18.317 0 0 0 618.851 33.9 A 24.639 24.639 0 0 0 616.242 40.037 Q 615.387 43.048 615.006 46.677 A 59.767 59.767 0 0 0 614.701 52.9 A 62.926 62.926 0 0 0 614.938 58.546 Q 615.172 61.139 615.638 63.34 A 26.316 26.316 0 0 0 616.801 67.35 A 23.069 23.069 0 0 0 618.497 70.886 Q 619.599 72.732 620.957 74.056 A 12.21 12.21 0 0 0 622.451 75.3 A 13.542 13.542 0 0 0 627.164 77.463 A 12.769 12.769 0 0 0 630.101 77.8 A 10.964 10.964 0 0 0 638.353 74.106 A 18.257 18.257 0 0 0 640.701 70.95 A 25.124 25.124 0 0 0 643.278 64.782 Q 644.129 61.739 644.504 58.076 A 60.695 60.695 0 0 0 644.801 51.9 A 62.926 62.926 0 0 0 644.564 46.254 Q 644.329 43.662 643.864 41.461 A 26.316 26.316 0 0 0 642.701 37.45 A 23.399 23.399 0 0 0 641.091 34.058 Q 640.033 32.245 638.738 30.938 A 11.933 11.933 0 0 0 637.101 29.55 Q 633.601 27.1 629.401 27.1 Z M 689.401 27.1 A 10.899 10.899 0 0 0 681.363 30.613 A 18.317 18.317 0 0 0 678.851 33.9 A 24.639 24.639 0 0 0 676.242 40.037 Q 675.387 43.048 675.006 46.677 A 59.767 59.767 0 0 0 674.701 52.9 A 62.926 62.926 0 0 0 674.938 58.546 Q 675.172 61.139 675.638 63.34 A 26.316 26.316 0 0 0 676.801 67.35 A 23.069 23.069 0 0 0 678.497 70.886 Q 679.599 72.732 680.957 74.056 A 12.21 12.21 0 0 0 682.451 75.3 A 13.542 13.542 0 0 0 687.164 77.463 A 12.769 12.769 0 0 0 690.101 77.8 A 10.964 10.964 0 0 0 698.353 74.106 A 18.257 18.257 0 0 0 700.701 70.95 A 25.124 25.124 0 0 0 703.278 64.782 Q 704.129 61.739 704.504 58.076 A 60.695 60.695 0 0 0 704.801 51.9 A 62.926 62.926 0 0 0 704.564 46.254 Q 704.329 43.662 703.864 41.461 A 26.316 26.316 0 0 0 702.701 37.45 A 23.399 23.399 0 0 0 701.091 34.058 Q 700.033 32.245 698.738 30.938 A 11.933 11.933 0 0 0 697.101 29.55 Q 693.601 27.1 689.401 27.1 Z M 749.401 27.1 A 10.899 10.899 0 0 0 741.363 30.613 A 18.317 18.317 0 0 0 738.851 33.9 A 24.639 24.639 0 0 0 736.242 40.037 Q 735.387 43.048 735.006 46.677 A 59.767 59.767 0 0 0 734.701 52.9 A 62.926 62.926 0 0 0 734.938 58.546 Q 735.172 61.139 735.638 63.34 A 26.316 26.316 0 0 0 736.801 67.35 A 23.069 23.069 0 0 0 738.497 70.886 Q 739.599 72.732 740.957 74.056 A 12.21 12.21 0 0 0 742.451 75.3 A 13.542 13.542 0 0 0 747.164 77.463 A 12.769 12.769 0 0 0 750.101 77.8 A 10.964 10.964 0 0 0 758.353 74.106 A 18.257 18.257 0 0 0 760.701 70.95 A 25.124 25.124 0 0 0 763.278 64.782 Q 764.129 61.739 764.504 58.076 A 60.695 60.695 0 0 0 764.801 51.9 A 62.926 62.926 0 0 0 764.564 46.254 Q 764.329 43.662 763.864 41.461 A 26.316 26.316 0 0 0 762.701 37.45 A 23.399 23.399 0 0 0 761.091 34.058 Q 760.033 32.245 758.738 30.938 A 11.933 11.933 0 0 0 757.101 29.55 Q 753.601 27.1 749.401 27.1 Z M 846.401 27.1 A 10.899 10.899 0 0 0 838.363 30.613 A 18.317 18.317 0 0 0 835.851 33.9 A 24.639 24.639 0 0 0 833.242 40.037 Q 832.387 43.048 832.006 46.677 A 59.767 59.767 0 0 0 831.701 52.9 A 62.926 62.926 0 0 0 831.938 58.546 Q 832.172 61.139 832.638 63.34 A 26.316 26.316 0 0 0 833.801 67.35 A 23.069 23.069 0 0 0 835.497 70.886 Q 836.599 72.732 837.957 74.056 A 12.21 12.21 0 0 0 839.451 75.3 A 13.542 13.542 0 0 0 844.164 77.463 A 12.769 12.769 0 0 0 847.101 77.8 A 10.964 10.964 0 0 0 855.353 74.106 A 18.257 18.257 0 0 0 857.701 70.95 A 25.124 25.124 0 0 0 860.278 64.782 Q 861.129 61.739 861.504 58.076 A 60.695 60.695 0 0 0 861.801 51.9 A 62.926 62.926 0 0 0 861.564 46.254 Q 861.329 43.662 860.864 41.461 A 26.316 26.316 0 0 0 859.701 37.45 A 23.399 23.399 0 0 0 858.091 34.058 Q 857.033 32.245 855.738 30.938 A 11.933 11.933 0 0 0 854.101 29.55 Q 850.601 27.1 846.401 27.1 Z M 943.401 27.1 A 10.899 10.899 0 0 0 935.363 30.613 A 18.317 18.317 0 0 0 932.851 33.9 A 24.639 24.639 0 0 0 930.242 40.037 Q 929.387 43.048 929.006 46.677 A 59.767 59.767 0 0 0 928.701 52.9 A 62.926 62.926 0 0 0 928.938 58.546 Q 929.172 61.139 929.638 63.34 A 26.316 26.316 0 0 0 930.801 67.35 A 23.069 23.069 0 0 0 932.497 70.886 Q 933.599 72.732 934.957 74.056 A 12.21 12.21 0 0 0 936.451 75.3 A 13.542 13.542 0 0 0 941.164 77.463 A 12.769 12.769 0 0 0 944.101 77.8 A 10.964 10.964 0 0 0 952.353 74.106 A 18.257 18.257 0 0 0 954.701 70.95 A 25.124 25.124 0 0 0 957.278 64.782 Q 958.129 61.739 958.504 58.076 A 60.695 60.695 0 0 0 958.801 51.9 A 62.926 62.926 0 0 0 958.564 46.254 Q 958.329 43.662 957.864 41.461 A 26.316 26.316 0 0 0 956.701 37.45 A 23.399 23.399 0 0 0 955.091 34.058 Q 954.033 32.245 952.738 30.938 A 11.933 11.933 0 0 0 951.101 29.55 Q 947.601 27.1 943.401 27.1 Z M 1003.401 27.1 A 10.899 10.899 0 0 0 995.363 30.613 A 18.317 18.317 0 0 0 992.851 33.9 A 24.639 24.639 0 0 0 990.242 40.037 Q 989.387 43.048 989.006 46.677 A 59.767 59.767 0 0 0 988.701 52.9 A 62.926 62.926 0 0 0 988.938 58.546 Q 989.172 61.139 989.638 63.34 A 26.316 26.316 0 0 0 990.801 67.35 A 23.069 23.069 0 0 0 992.497 70.886 Q 993.599 72.732 994.957 74.056 A 12.21 12.21 0 0 0 996.451 75.3 A 13.542 13.542 0 0 0 1001.164 77.463 A 12.769 12.769 0 0 0 1004.101 77.8 A 10.964 10.964 0 0 0 1012.353 74.106 A 18.257 18.257 0 0 0 1014.701 70.95 A 25.124 25.124 0 0 0 1017.278 64.782 Q 1018.129 61.739 1018.504 58.076 A 60.695 60.695 0 0 0 1018.801 51.9 A 62.926 62.926 0 0 0 1018.564 46.254 Q 1018.329 43.662 1017.864 41.461 A 26.316 26.316 0 0 0 1016.701 37.45 A 23.399 23.399 0 0 0 1015.091 34.058 Q 1014.033 32.245 1012.738 30.938 A 11.933 11.933 0 0 0 1011.101 29.55 Q 1007.601 27.1 1003.401 27.1 Z M 1100.401 27.1 A 10.899 10.899 0 0 0 1092.363 30.613 A 18.317 18.317 0 0 0 1089.851 33.9 A 24.639 24.639 0 0 0 1087.242 40.037 Q 1086.387 43.048 1086.006 46.677 A 59.767 59.767 0 0 0 1085.701 52.9 A 62.926 62.926 0 0 0 1085.938 58.546 Q 1086.172 61.139 1086.638 63.34 A 26.316 26.316 0 0 0 1087.801 67.35 A 23.069 23.069 0 0 0 1089.497 70.886 Q 1090.599 72.732 1091.957 74.056 A 12.21 12.21 0 0 0 1093.451 75.3 A 13.542 13.542 0 0 0 1098.164 77.463 A 12.769 12.769 0 0 0 1101.101 77.8 A 10.964 10.964 0 0 0 1109.353 74.106 A 18.257 18.257 0 0 0 1111.701 70.95 A 25.124 25.124 0 0 0 1114.278 64.782 Q 1115.129 61.739 1115.504 58.076 A 60.695 60.695 0 0 0 1115.801 51.9 A 62.926 62.926 0 0 0 1115.564 46.254 Q 1115.329 43.662 1114.864 41.461 A 26.316 26.316 0 0 0 1113.701 37.45 A 23.399 23.399 0 0 0 1112.091 34.058 Q 1111.033 32.245 1109.738 30.938 A 11.933 11.933 0 0 0 1108.101 29.55 Q 1104.601 27.1 1100.401 27.1 Z" vector-effect="non-scaling-stroke"/></g></svg>